<svg width="82" height="91" viewBox="0 0 82 91" fill="none" xmlns="http://www.w3.org/2000/svg">
<mask id="path-1-inside-1_117_215" fill="white">
<path d="M35.875 11.3397C31.9646 11.3397 28.3156 12.5474 25.2048 14.651C24.8832 12.7482 24.2971 10.912 23.4674 9.20779C27.369 6.81904 31.7666 5.59805 36.2254 5.66551C40.6842 5.73296 45.0499 7.08652 48.891 9.59241C52.7322 12.0983 55.9158 15.6698 58.1271 19.9538C60.3385 24.2378 61.5011 29.0862 61.5 34.0196H74.3176C76.3556 34.0211 78.3096 34.9178 79.7502 36.5126C81.1908 38.1074 82 40.2698 82 42.5245V76.5443C82 78.7999 81.1901 80.9632 79.7484 82.5582C78.3067 84.1532 76.3513 85.0492 74.3125 85.0492H43.5625C41.5236 85.0492 39.5683 84.1532 38.1266 82.5582C36.6849 80.9632 35.875 78.7999 35.875 76.5443V62.3694C32.31 62.3744 28.7835 61.5535 25.5225 59.9596C25.5891 58.0318 25.625 56.0077 25.625 53.8644V53.666C28.6385 55.5938 32.1389 56.6994 35.875 56.6994V42.5245C35.875 40.2688 36.6849 38.1056 38.1266 36.5106C39.5683 34.9156 41.5236 34.0196 43.5625 34.0196H56.375C56.375 28.0045 54.2152 22.2358 50.3707 17.9825C46.5262 13.7292 41.3119 11.3397 35.875 11.3397ZM60.9875 39.6895C59.9794 45.1359 57.5479 50.1349 53.9946 54.0659C50.4414 57.997 45.9229 60.6871 41 61.8024V76.5443C41 77.2962 41.27 78.0173 41.7505 78.5489C42.2311 79.0806 42.8829 79.3793 43.5625 79.3793H74.3125C74.9921 79.3793 75.6439 79.0806 76.1245 78.5489C76.605 78.0173 76.875 77.2962 76.875 76.5443V42.5245C76.875 41.7726 76.605 41.0515 76.1245 40.5199C75.6439 39.9882 74.9921 39.6895 74.3125 39.6895H60.9875ZM55.7292 39.6895H43.5625C42.8829 39.6895 42.2311 39.9882 41.7505 40.5199C41.27 41.0515 41 41.7726 41 42.5245V55.985C44.5455 54.9688 47.7809 52.9219 50.3708 50.0567C52.9606 47.1915 54.8107 43.6121 55.7292 39.6895ZM13.2276 0.708518C13.653 1.12017 13.9435 1.67586 14.0538 2.28909C14.1641 2.90232 14.088 3.53869 13.8375 4.09916C13.7941 4.26504 13.7717 4.43677 13.7709 4.60945C13.7709 4.96666 13.8529 5.64706 14.6268 6.49755C15.0009 6.91146 15.2879 7.2063 15.6005 7.52948C15.8568 7.7903 16.1284 8.06246 16.4718 8.43668C17.138 9.13975 17.8401 9.96757 18.4705 11.0052C19.7774 13.1768 20.5 15.8927 20.5 19.8446C20.5 24.6811 18.8805 28.8032 16.3539 31.332L16.6819 31.7516C18.1169 33.702 18.9523 36.2308 19.475 38.7256C20.5 43.6585 20.5 49.5893 20.5 53.7227V53.8644C20.5 69.6666 18.5576 78.6308 16.4205 83.7565C15.3442 86.3363 14.2014 87.9806 13.2123 89.0125C12.8101 89.4393 12.3667 89.8158 11.89 90.1352C11.6717 90.2806 11.4439 90.4076 11.2084 90.5151C11.2084 90.5151 10.6292 90.7192 10.25 90.7192C9.87075 90.7192 9.29163 90.5151 9.29163 90.5151C9.05356 90.4138 8.82522 90.2866 8.61 90.1352C8.13331 89.8158 7.68988 89.4393 7.28775 89.0125C6.29862 87.9749 5.15575 86.3363 4.0795 83.7565C1.94238 78.6308 0 69.6666 0 53.8644V53.7227C0 49.5836 2.29105e-07 43.6585 1.025 38.7256C1.54775 36.2308 2.38312 33.702 3.81812 31.7516C3.92062 31.6098 4.03338 31.4681 4.14612 31.332C1.6195 28.8032 0 24.6811 0 19.8446C0 17.9962 0.445875 15.7906 1.06088 13.7551C1.67588 11.7139 2.53687 9.60469 3.53112 7.9037C4.715 5.69242 6.38062 3.83834 7.67212 2.59095C8.38019 1.90202 9.11912 1.25294 9.88612 0.646149L10.0399 0.53275L10.086 0.493059L10.1014 0.48172L10.1116 0.47605C10.5816 0.129483 11.1418 -0.0356135 11.7053 0.00642627C12.2688 0.048466 12.804 0.295286 13.2276 0.708518ZM10.25 28.3496C12.2334 28.3439 15.375 25.9115 15.375 19.8446C15.375 16.7092 14.8164 15.1726 14.2014 14.152C13.8274 13.5559 13.3961 13.0065 12.915 12.5134L12.2795 11.8557C11.8644 11.4247 11.3775 10.9258 10.9982 10.5119C10.4377 9.89821 9.95655 9.20178 9.56838 8.44235C8.91602 9.20122 8.34191 10.038 7.85663 10.9371C7.13912 12.1562 6.44212 13.8288 5.9245 15.5525C5.3915 17.3102 5.125 18.8637 5.125 19.8446C5.125 25.9228 8.27688 28.3496 10.25 28.3496ZM7.79 35.335C7.06225 36.3159 6.4575 37.8808 6.01675 40.0014C5.13525 44.2425 5.125 49.5723 5.125 53.8644C5.125 69.247 7.02637 77.2927 8.733 81.3808C9.29675 82.7245 9.82463 83.6204 10.25 84.2157C10.8555 83.3407 11.3648 82.389 11.767 81.3808C13.4736 77.2927 15.375 69.247 15.375 53.8644C15.375 49.5723 15.3647 44.2425 14.4781 40.0014C14.0374 37.8808 13.4326 36.3159 12.71 35.335C12.4273 34.9112 12.0556 34.57 11.627 34.3408C11.1984 34.1116 10.7258 34.0014 10.25 34.0196H10.2397C9.76562 34.0027 9.29491 34.1137 8.86815 34.3428C8.44139 34.572 8.07139 34.9125 7.79 35.335Z"/>
</mask>
<path d="M35.875 11.3397C31.9646 11.3397 28.3156 12.5474 25.2048 14.651C24.8832 12.7482 24.2971 10.912 23.4674 9.20779C27.369 6.81904 31.7666 5.59805 36.2254 5.66551C40.6842 5.73296 45.0499 7.08652 48.891 9.59241C52.7322 12.0983 55.9158 15.6698 58.1271 19.9538C60.3385 24.2378 61.5011 29.0862 61.5 34.0196H74.3176C76.3556 34.0211 78.3096 34.9178 79.7502 36.5126C81.1908 38.1074 82 40.2698 82 42.5245V76.5443C82 78.7999 81.1901 80.9632 79.7484 82.5582C78.3067 84.1532 76.3513 85.0492 74.3125 85.0492H43.5625C41.5236 85.0492 39.5683 84.1532 38.1266 82.5582C36.6849 80.9632 35.875 78.7999 35.875 76.5443V62.3694C32.31 62.3744 28.7835 61.5535 25.5225 59.9596C25.5891 58.0318 25.625 56.0077 25.625 53.8644V53.666C28.6385 55.5938 32.1389 56.6994 35.875 56.6994V42.5245C35.875 40.2688 36.6849 38.1056 38.1266 36.5106C39.5683 34.9156 41.5236 34.0196 43.5625 34.0196H56.375C56.375 28.0045 54.2152 22.2358 50.3707 17.9825C46.5262 13.7292 41.3119 11.3397 35.875 11.3397ZM60.9875 39.6895C59.9794 45.1359 57.5479 50.1349 53.9946 54.0659C50.4414 57.997 45.9229 60.6871 41 61.8024V76.5443C41 77.2962 41.27 78.0173 41.7505 78.5489C42.2311 79.0806 42.8829 79.3793 43.5625 79.3793H74.3125C74.9921 79.3793 75.6439 79.0806 76.1245 78.5489C76.605 78.0173 76.875 77.2962 76.875 76.5443V42.5245C76.875 41.7726 76.605 41.0515 76.1245 40.5199C75.6439 39.9882 74.9921 39.6895 74.3125 39.6895H60.9875ZM55.7292 39.6895H43.5625C42.8829 39.6895 42.2311 39.9882 41.7505 40.5199C41.27 41.0515 41 41.7726 41 42.5245V55.985C44.5455 54.9688 47.7809 52.9219 50.3708 50.0567C52.9606 47.1915 54.8107 43.6121 55.7292 39.6895ZM13.2276 0.708518C13.653 1.12017 13.9435 1.67586 14.0538 2.28909C14.1641 2.90232 14.088 3.53869 13.8375 4.09916C13.7941 4.26504 13.7717 4.43677 13.7709 4.60945C13.7709 4.96666 13.8529 5.64706 14.6268 6.49755C15.0009 6.91146 15.2879 7.2063 15.6005 7.52948C15.8568 7.7903 16.1284 8.06246 16.4718 8.43668C17.138 9.13975 17.8401 9.96757 18.4705 11.0052C19.7774 13.1768 20.5 15.8927 20.5 19.8446C20.5 24.6811 18.8805 28.8032 16.3539 31.332L16.6819 31.7516C18.1169 33.702 18.9523 36.2308 19.475 38.7256C20.5 43.6585 20.5 49.5893 20.5 53.7227V53.8644C20.5 69.6666 18.5576 78.6308 16.4205 83.7565C15.3442 86.3363 14.2014 87.9806 13.2123 89.0125C12.8101 89.4393 12.3667 89.8158 11.89 90.1352C11.6717 90.2806 11.4439 90.4076 11.2084 90.5151C11.2084 90.5151 10.6292 90.7192 10.25 90.7192C9.87075 90.7192 9.29163 90.5151 9.29163 90.5151C9.05356 90.4138 8.82522 90.2866 8.61 90.1352C8.13331 89.8158 7.68988 89.4393 7.28775 89.0125C6.29862 87.9749 5.15575 86.3363 4.0795 83.7565C1.94238 78.6308 0 69.6666 0 53.8644V53.7227C0 49.5836 2.29105e-07 43.6585 1.025 38.7256C1.54775 36.2308 2.38312 33.702 3.81812 31.7516C3.92062 31.6098 4.03338 31.4681 4.14612 31.332C1.6195 28.8032 0 24.6811 0 19.8446C0 17.9962 0.445875 15.7906 1.06088 13.7551C1.67588 11.7139 2.53687 9.60469 3.53112 7.9037C4.715 5.69242 6.38062 3.83834 7.67212 2.59095C8.38019 1.90202 9.11912 1.25294 9.88612 0.646149L10.0399 0.53275L10.086 0.493059L10.1014 0.48172L10.1116 0.47605C10.5816 0.129483 11.1418 -0.0356135 11.7053 0.00642627C12.2688 0.048466 12.804 0.295286 13.2276 0.708518ZM10.25 28.3496C12.2334 28.3439 15.375 25.9115 15.375 19.8446C15.375 16.7092 14.8164 15.1726 14.2014 14.152C13.8274 13.5559 13.3961 13.0065 12.915 12.5134L12.2795 11.8557C11.8644 11.4247 11.3775 10.9258 10.9982 10.5119C10.4377 9.89821 9.95655 9.20178 9.56838 8.44235C8.91602 9.20122 8.34191 10.038 7.85663 10.9371C7.13912 12.1562 6.44212 13.8288 5.9245 15.5525C5.3915 17.3102 5.125 18.8637 5.125 19.8446C5.125 25.9228 8.27688 28.3496 10.25 28.3496ZM7.79 35.335C7.06225 36.3159 6.4575 37.8808 6.01675 40.0014C5.13525 44.2425 5.125 49.5723 5.125 53.8644C5.125 69.247 7.02637 77.2927 8.733 81.3808C9.29675 82.7245 9.82463 83.6204 10.25 84.2157C10.8555 83.3407 11.3648 82.389 11.767 81.3808C13.4736 77.2927 15.375 69.247 15.375 53.8644C15.375 49.5723 15.3647 44.2425 14.4781 40.0014C14.0374 37.8808 13.4326 36.3159 12.71 35.335C12.4273 34.9112 12.0556 34.57 11.627 34.3408C11.1984 34.1116 10.7258 34.0014 10.25 34.0196H10.2397C9.76562 34.0027 9.29491 34.1137 8.86815 34.3428C8.44139 34.572 8.07139 34.9125 7.79 35.335Z" fill="#31CF9F" stroke="black" stroke-width="1.4" mask="url(#path-1-inside-1_117_215)"/>
</svg>
