<svg width="94" height="97" viewBox="0 0 94 97" fill="none" xmlns="http://www.w3.org/2000/svg">
<path d="M48.2051 23.214H48.4036L48.548 23.0779L71.8077 1.15824V89.6978L48.548 67.7781L48.4036 67.642H48.2051H33.7436H33.2436V68.142V90.856C33.2436 92.2535 32.7716 93.5805 31.9505 94.5477C31.1315 95.5125 30.04 96.0345 28.9231 96.0345H19.2821C18.1651 96.0345 17.0736 95.5125 16.2546 94.5477C15.4335 93.5805 14.9615 92.2535 14.9615 90.856V68.142V67.642H14.4615H9.64103C7.24557 67.642 4.92796 66.5217 3.20497 64.492C1.47986 62.4599 0.5 59.6885 0.5 56.785V34.071C0.5 31.1675 1.47986 28.3961 3.20497 26.364C4.92796 24.3343 7.24557 23.214 9.64103 23.214H48.2051ZM93.5 45.428C93.5 54.658 89.2544 63.0075 82.4487 67.2626V23.6021C89.2146 27.9111 93.5 36.2593 93.5 45.428Z" fill="#16C79E" stroke="black"/>
</svg>
