<svg width="81" height="87" viewBox="0 0 81 87" fill="none" xmlns="http://www.w3.org/2000/svg">
<rect width="81" height="87" fill="white"/>
<path fill-rule="evenodd" clip-rule="evenodd" d="M3.375 43.5C3.375 21.4781 19.9969 3.625 40.5 3.625C61.0031 3.625 77.625 21.4781 77.625 43.5C77.625 65.5219 61.0031 83.375 40.5 83.375C19.9969 83.375 3.375 65.5219 3.375 43.5ZM49.95 34.075C49.4129 33.3059 48.6134 32.7974 47.7273 32.6614C46.8412 32.5255 45.9411 32.7732 45.225 33.35C44.5089 33.9268 44.0355 34.7856 43.9089 35.7373C43.7823 36.6891 44.0129 37.6559 44.55 38.425L48.0938 43.5L44.55 48.575C44.0129 49.3441 43.7823 50.3109 43.9089 51.2627C44.0355 52.2144 44.5089 53.0732 45.225 53.65C45.9411 54.2268 46.8412 54.4745 47.7273 54.3386C48.6134 54.2026 49.4129 53.6941 49.95 52.925L52.3125 49.5429L54.675 52.925C55.2121 53.6941 56.0116 54.2026 56.8977 54.3386C57.3365 54.4059 57.7833 54.3797 58.2126 54.2616C58.642 54.1434 59.0454 53.9356 59.4 53.65C59.7546 53.3644 60.0533 53.0065 60.2791 52.5969C60.5049 52.1873 60.6534 51.7339 60.7161 51.2627C60.7788 50.7914 60.7544 50.3115 60.6444 49.8503C60.5344 49.3892 60.3409 48.9558 60.075 48.575L56.5313 43.5L60.075 38.425C60.6121 37.6559 60.8427 36.6891 60.7161 35.7373C60.5895 34.7856 60.1161 33.9268 59.4 33.35C59.0454 33.0644 58.642 32.8566 58.2126 32.7384C57.7833 32.6203 57.3365 32.5941 56.8977 32.6614C56.0116 32.7974 55.2121 33.3059 54.675 34.075L52.3125 37.4571L49.95 34.075ZM27 36.25C27 35.2886 26.6444 34.3666 26.0115 33.6867C25.3786 33.0069 24.5201 32.625 23.625 32.625C22.7299 32.625 21.8715 33.0069 21.2385 33.6867C20.6056 34.3666 20.25 35.2886 20.25 36.25V43.5C20.25 45.2871 20.7225 47.8899 22.2345 50.1482C23.8748 52.5987 26.5748 54.375 30.375 54.375C34.1753 54.375 36.8753 52.5915 38.5155 50.1482C40.0275 47.8899 40.5 45.2907 40.5 43.5V36.25C40.5 35.2886 40.1444 34.3666 39.5115 33.6867C38.8786 33.0069 38.0201 32.625 37.125 32.625C36.2299 32.625 35.3715 33.0069 34.7385 33.6867C34.1056 34.3666 33.75 35.2886 33.75 36.25V43.5C33.75 44.1271 33.5475 45.153 33.0345 45.9143C32.6498 46.4906 31.9748 47.125 30.375 47.125C28.7753 47.125 28.1003 46.4906 27.7155 45.9143C27.2662 45.1999 27.0179 44.3618 27 43.5V36.25Z" fill="#31CF9F"/>
</svg>
